<?xml version="1.0" standalone="no"?>
<!DOCTYPE svg PUBLIC "-//W3C//DTD SVG 20010904//EN"
 "http://www.w3.org/TR/2001/REC-SVG-20010904/DTD/svg10.dtd">
<svg version="1.0" xmlns="http://www.w3.org/2000/svg"
 width="1024.000000pt" height="1024.000000pt" viewBox="0 0 1024.000000 1024.000000"
 preserveAspectRatio="xMidYMid meet">

<g transform="translate(0.000000,1024.000000) scale(0.100000,-0.100000)"
fill="#000000" stroke="none">
<path d="M2047 9969 c-104 -25 -207 -111 -260 -219 -31 -63 -32 -68 -32 -201
0 -100 -3 -135 -12 -132 -6 3 -21 -5 -34 -18 -20 -20 -21 -29 -17 -108 7 -110
39 -197 85 -226 18 -11 34 -25 37 -31 2 -7 12 -77 22 -156 16 -143 16 -145 -4
-191 -25 -57 -43 -69 -286 -202 -169 -92 -197 -104 -265 -114 -178 -26 -333
-143 -415 -314 -52 -107 -66 -168 -66 -279 0 -69 -3 -84 -23 -108 -38 -44
-103 -178 -132 -270 -14 -47 -35 -139 -47 -205 -11 -66 -26 -134 -33 -151 -7
-17 -41 -63 -76 -103 -171 -195 -206 -276 -294 -691 -15 -68 -56 -219 -91
-335 -73 -236 -104 -394 -104 -528 0 -50 2 -88 4 -86 2 2 18 87 35 189 23 132
50 245 96 395 68 221 84 284 139 536 19 86 45 183 58 216 30 74 98 177 173
263 32 36 66 79 76 95 l19 30 0 -55 c1 -30 7 -84 15 -120 33 -145 36 -176 21
-247 -17 -84 -59 -176 -169 -374 -47 -85 -108 -206 -135 -269 -45 -105 -102
-267 -102 -291 0 -5 18 -29 40 -53 27 -29 51 -73 75 -136 35 -88 36 -98 34
-199 -2 -58 1 -138 5 -177 9 -77 -1 -114 -33 -114 -32 0 -50 34 -62 114 -12
88 -18 108 -49 157 -20 32 -21 33 -14 6 5 -24 0 -33 -34 -65 -46 -43 -62 -88
-62 -182 0 -89 12 -124 60 -176 63 -68 76 -124 29 -124 -30 0 -148 116 -172
170 -16 35 -21 66 -21 143 0 84 -2 96 -13 81 -16 -22 -18 -172 -2 -227 12 -45
133 -178 179 -197 40 -17 77 6 86 54 3 19 12 37 20 40 25 10 17 87 -14 137
-16 24 -36 50 -46 58 -28 23 -56 87 -56 126 0 26 7 43 27 61 26 24 27 24 34 5
5 -11 11 -47 15 -81 9 -78 38 -124 81 -128 75 -7 103 52 83 177 -7 44 -9 109
-6 160 6 80 4 92 -25 171 -17 47 -33 101 -36 120 -9 67 74 192 282 425 231
258 291 382 334 689 10 72 14 82 57 130 72 79 128 163 178 263 25 51 46 97 46
103 0 5 4 10 9 10 5 0 11 -23 15 -51 5 -35 29 -94 75 -183 38 -72 74 -156 82
-186 15 -64 18 -245 5 -411 -6 -84 -5 -130 3 -166 12 -47 10 -58 -23 -164 -49
-160 -63 -220 -76 -329 -7 -59 -34 -172 -72 -300 -137 -462 -153 -562 -145
-929 7 -333 38 -515 114 -665 30 -60 31 -89 9 -314 -25 -255 -32 -291 -80
-418 -72 -194 -81 -250 -80 -474 0 -163 4 -220 26 -350 62 -359 102 -698 102
-865 0 -150 -1 -165 -27 -234 -15 -42 -27 -95 -27 -121 0 -41 -8 -59 -69 -151
-38 -57 -104 -142 -146 -189 -100 -112 -109 -147 -46 -184 19 -11 55 -23 80
-28 25 -4 71 -12 101 -19 51 -11 103 -16 192 -19 75 -3 178 73 198 145 10 35
20 50 44 62 99 50 123 116 91 248 -19 79 -19 132 1 211 16 61 15 68 -2 127
-55 183 31 719 155 966 77 153 92 221 98 436 4 148 1 207 -16 330 -32 227 -30
265 23 398 72 182 146 506 146 637 0 56 16 126 91 400 22 80 49 196 59 258 29
169 26 424 -7 535 -4 17 -2 17 17 7 13 -7 40 -10 62 -7 32 4 38 3 34 -10 -19
-49 -28 -173 -23 -313 7 -177 28 -288 107 -572 39 -142 53 -210 60 -301 19
-235 60 -413 143 -621 59 -148 61 -177 31 -362 -8 -55 -18 -187 -21 -294 -6
-243 9 -333 85 -497 59 -126 91 -233 132 -433 52 -255 61 -417 31 -555 -17
-78 -16 -82 3 -154 19 -71 19 -76 3 -156 -32 -156 -16 -215 74 -274 37 -24 49
-38 49 -56 0 -35 62 -99 123 -130 47 -22 61 -25 147 -21 52 2 115 9 140 15 25
7 63 16 85 20 22 4 59 17 83 29 33 18 42 28 42 48 0 36 -22 73 -75 124 -64 61
-135 152 -190 240 -38 62 -45 82 -45 124 0 29 -11 81 -27 125 -26 71 -27 86
-27 241 0 140 7 210 42 455 23 160 54 351 68 425 31 168 41 351 25 489 -13
106 -28 164 -99 376 -35 102 -43 141 -51 255 -6 74 -16 176 -22 225 l-12 90
36 90 c36 91 65 214 89 380 8 58 13 188 12 365 0 232 -4 292 -21 385 -19 103
-111 447 -154 578 -11 32 -28 120 -39 195 -11 75 -38 199 -60 276 -38 135 -39
140 -28 215 8 60 7 110 -6 236 -21 211 -6 335 51 434 45 78 90 174 113 245
l23 69 47 -100 c51 -108 108 -198 177 -280 42 -49 45 -56 64 -170 25 -150 58
-260 105 -348 50 -95 89 -147 228 -305 215 -244 295 -367 282 -433 -4 -18 -20
-65 -37 -105 -27 -66 -30 -83 -30 -185 -1 -62 -1 -151 -2 -198 -2 -96 13 -129
60 -129 58 0 95 55 107 160 4 30 11 62 16 70 8 13 11 12 24 -5 9 -11 22 -34
31 -52 14 -30 14 -33 -18 -90 -18 -32 -50 -82 -71 -111 -48 -67 -62 -140 -27
-149 13 -3 21 -13 21 -27 0 -12 7 -32 16 -44 23 -34 64 -28 121 16 108 86 151
160 178 307 29 156 29 190 1 315 -14 63 -34 169 -46 235 -13 75 -39 171 -70
257 -59 162 -113 365 -135 503 -40 254 -107 407 -251 572 -94 107 -109 137
-129 254 -38 224 -89 367 -173 484 -34 47 -35 54 -37 140 -7 296 -187 512
-477 574 -85 17 -119 32 -268 113 -192 105 -258 150 -280 193 -19 38 -26 220
-11 301 7 37 17 63 28 69 66 38 99 112 109 240 6 84 -8 118 -49 123 l-28 3 7
82 c19 243 -101 429 -307 476 -53 13 -239 12 -292 0z m321 -50 c110 -37 178
-104 218 -213 16 -43 19 -76 17 -216 -2 -146 0 -163 13 -146 7 11 14 24 14 29
0 4 10 7 23 5 21 -3 22 -7 22 -88 0 -92 -21 -164 -55 -195 -20 -18 -20 -17
-20 25 0 61 -13 40 -34 -55 -25 -108 -76 -204 -142 -264 -156 -142 -301 -136
-455 19 -79 80 -104 128 -131 259 -23 108 -38 130 -38 54 0 -44 -1 -46 -19
-29 -33 30 -68 195 -53 251 10 37 42 47 42 13 1 -13 7 -34 14 -47 l13 -23 6
23 c4 13 2 62 -4 108 -16 116 -8 245 18 301 43 94 139 173 252 206 67 20 220
11 299 -17z m-329 -1338 c43 -166 89 -307 90 -279 2 30 -36 210 -63 303 -14
49 -26 93 -26 97 0 5 15 1 33 -9 24 -13 55 -18 127 -18 90 0 115 6 181 42 4 2
-7 -43 -23 -99 -37 -132 -68 -266 -67 -298 0 -22 27 64 110 350 14 50 31 79
67 120 l49 54 6 -134 c9 -214 44 -302 137 -350 21 -11 20 -7 -11 27 -41 46
-73 122 -84 202 l-7 54 28 -31 c27 -29 106 -77 329 -197 l90 -49 -65 -14 c-36
-7 -162 -17 -280 -21 -246 -9 -293 -20 -366 -84 -25 -22 -54 -58 -66 -81 -19
-37 -22 -39 -32 -22 -36 59 -72 100 -114 127 -76 48 -130 59 -286 59 -78 0
-168 5 -201 11 -33 7 -89 15 -125 18 l-65 6 50 27 c28 14 85 47 128 72 43 25
110 62 149 82 39 19 81 46 95 60 13 13 25 24 27 24 5 0 -12 -85 -26 -133 -8
-26 -31 -60 -59 -88 -43 -44 -44 -46 -16 -37 46 17 94 72 113 130 10 34 18
104 21 196 l6 144 52 -52 53 -52 41 -157z m-558 -257 c42 -3 81 -9 87 -13 6
-4 -14 -27 -50 -56 -148 -122 -338 -373 -338 -448 0 -21 -14 -32 -82 -67 -98
-51 -161 -92 -204 -132 l-32 -30 -12 73 c-18 103 -8 249 20 324 87 229 298
380 500 359 19 -2 69 -6 111 -10z m1739 -17 c162 -59 285 -190 334 -357 17
-58 23 -239 11 -322 l-7 -48 -50 45 c-27 24 -96 68 -154 97 -57 29 -104 58
-104 63 -1 74 -109 233 -269 398 -68 70 -120 127 -115 128 5 0 52 6 104 13
109 16 172 12 250 -17z m-1250 -17 c56 -15 140 -72 171 -115 39 -54 49 -119
49 -310 0 -189 -10 -255 -46 -303 -50 -65 -193 -112 -384 -128 -163 -13 -304
28 -402 115 -60 54 -148 184 -148 219 1 40 40 128 90 202 50 75 236 269 295
308 40 27 42 27 190 24 83 -2 166 -7 185 -12z m968 -107 c165 -163 272 -317
272 -390 -1 -54 -40 -116 -133 -208 -102 -102 -147 -125 -280 -146 -88 -14
-277 2 -372 32 -83 25 -154 74 -179 124 -19 37 -21 57 -21 260 0 250 8 294 62
350 72 75 144 93 370 94 l162 1 119 -117z m569 -606 c81 -79 160 -251 194
-422 19 -96 17 -279 -5 -392 l-18 -92 -42 33 c-22 19 -75 54 -116 78 -104 62
-173 146 -255 312 -76 155 -92 213 -105 381 l-10 126 35 51 c20 28 38 61 41
73 5 21 9 20 117 -37 72 -38 131 -77 164 -111z m-2313 121 c11 -18 35 -53 54
-76 l35 -44 -7 -78 c-18 -222 -129 -476 -274 -632 -24 -25 -75 -65 -113 -88
-39 -23 -85 -54 -103 -70 l-32 -29 -20 72 c-15 58 -19 106 -19 242 0 199 14
263 94 430 40 84 58 109 110 157 55 50 217 147 246 148 6 0 19 -15 29 -32z
m-365 -122 c0 -16 -21 -82 -49 -146 -27 -64 -59 -152 -70 -196 -39 -148 -37
-357 5 -519 l15 -57 -36 -49 c-20 -28 -38 -48 -40 -47 -1 2 2 24 7 48 13 55 7
126 -20 250 -25 113 -26 181 -6 315 25 165 80 324 154 443 l26 42 6 -27 c4
-16 7 -41 8 -57z m2882 -121 c57 -148 82 -281 83 -455 1 -135 -2 -164 -22
-224 -24 -74 -27 -122 -12 -175 5 -19 8 -36 7 -37 -1 -2 -19 19 -39 46 -36 49
-37 51 -24 88 37 103 47 332 22 464 -19 98 -55 205 -106 311 -27 58 -39 94
-35 112 18 86 12 84 56 14 21 -35 53 -100 70 -144z m-1529 -147 c-4 -4 -71
-13 -147 -19 -157 -12 -214 -31 -251 -87 l-22 -31 -49 52 c-46 49 -61 78 -77
150 l-6 27 57 0 c96 1 264 27 335 53 67 24 134 66 153 96 7 11 11 -21 13 -108
1 -68 -1 -128 -6 -133z m159 161 c57 -29 200 -57 327 -66 l102 -6 0 -34 c0
-45 -22 -95 -66 -148 l-36 -44 -24 29 c-55 64 -182 99 -366 100 l-58 0 0 131
0 131 40 -35 c21 -20 58 -46 81 -58z m779 10 c0 -44 7 -111 16 -149 14 -62 14
-72 0 -98 -8 -16 -26 -59 -40 -96 -39 -104 -123 -259 -157 -292 -26 -24 -30
-25 -26 -9 4 11 13 53 21 93 10 46 27 91 46 120 41 62 55 117 41 161 -9 29 -7
40 14 75 15 26 33 86 47 159 12 64 26 117 30 117 4 0 8 -36 8 -81z m-1800 56
c0 -8 -4 -15 -10 -15 -5 0 -10 7 -10 15 0 8 5 15 10 15 6 0 10 -7 10 -15z
m156 -99 c33 -13 76 -27 98 -31 36 -7 38 -9 33 -39 -6 -33 -41 -132 -56 -155
-14 -21 -66 4 -117 54 -41 41 -52 72 -80 214 l-6 34 35 -27 c19 -14 61 -37 93
-50z m1569 -18 c-22 -107 -43 -144 -110 -191 l-55 -38 -36 78 c-43 94 -52 131
-33 137 8 2 44 11 80 21 37 9 89 31 115 49 27 18 50 31 52 30 2 -1 -4 -40 -13
-86z m-1706 -27 c12 -47 29 -96 38 -110 12 -18 17 -48 17 -96 1 -64 5 -76 41
-135 38 -62 84 -220 65 -220 -19 0 -73 81 -124 185 -66 134 -101 251 -93 315
7 56 28 152 32 148 2 -2 13 -41 24 -87z m299 -113 c6 -18 33 -57 59 -87 l48
-55 6 -95 c4 -53 8 -171 10 -262 3 -123 8 -170 18 -183 11 -12 12 -35 7 -92
-3 -42 -9 -80 -12 -86 -4 -5 -17 16 -29 47 -13 32 -60 112 -104 179 -44 66
-87 137 -94 156 -15 35 -41 169 -35 176 11 11 74 -48 112 -104 24 -37 61 -83
82 -102 29 -27 34 -29 21 -10 -125 189 -157 261 -157 353 0 46 39 197 50 197
4 0 11 -15 18 -32z m1192 -52 c24 -74 23 -105 -6 -226 -18 -71 -60 -154 -107
-207 -16 -18 -28 -36 -25 -38 8 -9 77 70 112 129 32 52 90 105 103 92 10 -10
-18 -150 -39 -189 -11 -23 -51 -87 -89 -142 -67 -99 -119 -193 -119 -214 0 -6
-4 -11 -9 -11 -22 0 -29 141 -9 187 7 17 13 91 15 183 2 85 6 198 10 250 8 95
8 95 60 162 28 37 54 77 58 89 9 29 19 16 45 -65z m-643 -88 c-5 -142 -17
-192 -49 -209 -31 -17 -155 -22 -238 -11 -101 15 -120 35 -120 133 0 38 6 84
14 102 17 42 68 85 109 92 27 5 187 19 266 24 l24 1 -6 -132z m322 105 c33
-10 69 -31 93 -53 l38 -37 0 -82 c0 -92 -8 -114 -48 -135 -38 -19 -149 -28
-240 -20 -65 6 -81 11 -104 35 l-28 27 0 147 0 147 118 -6 c64 -4 141 -14 171
-23z m-967 -105 c4 -13 11 -51 15 -85 7 -50 6 -63 -4 -63 -22 0 -91 69 -112
114 -20 41 -28 96 -15 109 12 11 109 -52 116 -75z m1452 59 c14 -55 -42 -156
-108 -195 -43 -25 -43 -24 -18 83 15 62 22 73 60 102 52 39 58 40 66 10z m854
-209 c5 -13 47 -66 91 -118 128 -150 171 -249 217 -490 43 -230 80 -365 154
-570 22 -63 50 -164 60 -225 11 -60 33 -175 49 -255 17 -80 29 -152 26 -160
-2 -8 -9 -35 -15 -60 -12 -44 -12 -44 -26 -20 -12 23 -13 17 -14 -60 0 -47 -5
-102 -11 -123 -18 -68 -167 -206 -193 -180 -10 10 -7 53 5 76 7 12 29 41 50
64 44 49 53 84 47 193 -5 79 -7 85 -61 153 -23 29 -26 39 -17 61 15 41 -2 31
-38 -23 -25 -36 -36 -66 -44 -122 -14 -94 -32 -131 -61 -127 -40 6 -50 48 -37
145 7 47 10 113 6 147 -10 97 41 238 113 314 50 53 51 71 10 187 -48 138 -95
239 -191 408 -121 216 -156 287 -173 354 -19 71 -19 173 -2 216 19 44 26 90
28 170 2 70 9 82 27 45z m-1673 -394 c-25 -39 -81 -49 -206 -37 -168 15 -172
21 -182 234 l-5 116 61 -14 c79 -19 269 -14 312 7 l30 15 3 -149 c2 -120 0
-153 -13 -172z m225 288 c78 -2 132 1 168 11 l52 14 0 -127 c0 -70 -5 -140
-10 -157 -16 -45 -67 -65 -180 -71 -104 -5 -174 8 -188 36 -5 9 -12 88 -16
174 l-6 157 32 -17 c23 -11 68 -17 148 -20z m-785 -252 c103 -153 132 -220
180 -410 54 -215 121 -435 187 -614 32 -87 58 -162 56 -168 -3 -9 -116 111
-176 188 -17 23 -65 105 -106 182 -100 188 -113 207 -193 282 -89 84 -100 119
-87 289 11 151 11 312 1 381 l-8 55 30 -29 c17 -16 69 -87 116 -156z m1325
135 c-13 -55 -12 -207 1 -340 7 -62 8 -143 5 -181 l-8 -69 -87 -85 c-79 -77
-94 -98 -159 -223 -85 -163 -128 -228 -209 -317 -32 -36 -69 -78 -81 -94 -33
-43 -28 -12 22 121 47 128 104 311 161 523 80 299 111 375 221 537 58 87 133
177 140 170 2 -1 -1 -20 -6 -42z m-2015 -114 c-36 -253 -100 -374 -339 -640
-134 -148 -200 -235 -247 -324 l-36 -69 -25 32 c-24 31 -25 35 -12 76 39 131
130 328 234 509 32 55 72 129 90 165 74 147 187 280 290 338 30 17 56 30 57
28 2 -2 -4 -53 -12 -115z m2672 42 c75 -52 149 -141 200 -238 20 -38 72 -130
116 -204 137 -233 246 -472 249 -544 1 -22 -7 -47 -22 -67 l-22 -32 -34 69
c-35 73 -126 190 -295 380 -195 220 -254 335 -294 573 -9 52 -19 106 -22 118
l-6 24 34 -17 c19 -10 62 -37 96 -62z m-1194 -168 c100 0 149 4 165 13 13 8
27 11 30 7 4 -4 7 -66 7 -138 0 -121 -4 -143 -38 -269 -49 -181 -121 -410
-199 -638 -52 -152 -69 -191 -99 -222 -44 -47 -69 -48 -115 -5 -30 27 -44 56
-88 187 -30 85 -75 213 -100 284 -55 151 -154 503 -163 575 -3 27 -2 88 2 136
l7 86 56 -8 c32 -4 107 -8 169 -8 98 0 115 3 140 21 l28 21 28 -21 c26 -19 42
-21 170 -21z m-854 -467 c33 -31 70 -76 81 -99 12 -23 46 -144 75 -268 30
-125 76 -303 104 -397 127 -427 167 -725 158 -1177 -5 -282 -9 -309 -93 -582
-52 -171 -80 -231 -197 -438 -161 -281 -167 -320 -170 -1070 -2 -558 6 -733
35 -777 7 -12 8 -10 3 5 -11 31 -19 753 -10 909 l7 138 24 -58 c15 -37 38 -72
64 -95 l40 -37 -30 -113 c-59 -230 -83 -381 -84 -549 -1 -103 4 -173 13 -209
12 -48 12 -62 -5 -133 -16 -71 -16 -88 -5 -151 8 -40 16 -97 18 -127 5 -50 2
-59 -22 -88 -32 -38 -41 -40 -48 -10 -9 31 -18 18 -52 -75 -28 -76 -35 -85
-85 -120 -69 -47 -125 -59 -134 -29 -8 24 12 68 43 96 21 19 28 46 13 46 -11
0 -67 -60 -81 -87 -6 -12 -11 -31 -11 -42 0 -17 -6 -21 -35 -21 -51 0 -55 22
-17 93 28 54 28 57 7 37 -13 -12 -34 -43 -47 -68 -12 -26 -24 -49 -25 -50 -1
-2 -11 -1 -22 3 -35 11 -22 79 28 140 10 13 6 11 -13 -5 -30 -26 -68 -98 -60
-112 3 -4 -4 -8 -16 -8 -11 0 -23 7 -26 15 -8 19 12 78 37 109 11 14 16 26 11
26 -15 0 -59 -72 -67 -108 -8 -37 -14 -39 -46 -13 -23 18 -23 19 -4 47 10 16
52 66 92 112 82 92 162 210 217 320 37 74 41 97 6 40 -20 -33 -20 -33 -20 -7
0 14 10 52 22 85 20 54 22 77 22 264 0 216 -15 357 -96 875 -28 183 -30 214
-25 370 6 186 17 241 94 463 l39 113 12 -51 c32 -137 36 -234 22 -550 -14
-333 -10 -623 15 -995 8 -121 15 -251 16 -290 l2 -70 8 70 c7 66 1 282 -22
675 -6 120 -6 276 2 500 13 380 8 567 -20 700 -23 108 -26 163 -11 270 6 41
14 110 18 153 7 74 8 77 26 64 18 -13 18 -15 1 -47 -15 -30 -17 -52 -12 -165
8 -187 39 -275 110 -311 l31 -17 -28 33 c-63 75 -85 162 -86 333 0 100 14 143
56 176 34 26 74 88 74 114 0 9 5 17 10 17 6 0 10 -10 10 -23 0 -56 33 -120
102 -194 l70 -75 -5 -51 c-4 -27 -21 -79 -38 -116 -17 -36 -42 -91 -56 -121
l-24 -55 25 30 c45 54 114 205 122 268 6 53 8 57 33 57 36 0 121 67 148 116
38 68 56 207 50 384 -7 185 -21 255 -93 465 -196 564 -290 988 -295 1320 l-1
70 -13 -55 c-19 -76 -59 -163 -107 -232 -23 -32 -42 -57 -44 -56 -10 11 33
256 63 358 19 69 38 138 40 153 3 15 9 27 13 25 5 -2 35 -29 69 -60z m1401 35
c0 -8 14 -62 30 -119 27 -90 40 -165 66 -354 l6 -45 -35 51 c-54 78 -97 169
-116 247 l-18 71 -6 -180 c-4 -146 -11 -208 -36 -335 -41 -207 -110 -457 -214
-774 -99 -301 -127 -423 -134 -590 -13 -287 64 -473 204 -492 l39 -5 12 -79
c12 -87 59 -208 97 -254 22 -28 22 -23 -10 53 -40 95 -65 185 -65 232 0 39 13
64 61 116 44 49 66 89 89 162 l17 54 14 -34 c7 -18 32 -53 55 -78 22 -25 51
-71 64 -102 22 -55 23 -61 10 -145 -17 -120 -44 -202 -84 -262 -35 -51 -23
-56 21 -9 70 74 115 328 78 433 -10 28 -11 43 -3 52 18 23 28 14 28 -24 0 -21
7 -99 16 -174 l17 -137 -28 -138 c-33 -161 -36 -258 -21 -774 7 -246 5 -351
-8 -545 -24 -369 -28 -483 -18 -570 l9 -80 2 85 c0 47 10 225 21 395 24 381
28 593 16 980 -8 299 -6 338 25 477 l11 48 40 -113 c83 -232 90 -269 92 -492
1 -184 -2 -214 -31 -380 -77 -430 -108 -702 -100 -894 4 -113 9 -150 32 -219
15 -45 24 -86 20 -90 -4 -4 -10 -1 -12 5 -3 7 -14 23 -24 35 -35 39 89 -194
136 -257 25 -33 80 -98 124 -145 88 -96 102 -123 72 -139 -29 -16 -41 -13 -41
9 0 29 -23 70 -55 100 -27 25 -26 24 5 -26 34 -56 38 -106 9 -112 -12 -2 -18
7 -23 31 -3 19 -22 52 -41 73 l-35 39 31 -51 c34 -58 36 -97 4 -102 -14 -2
-26 7 -38 30 -10 18 -31 49 -48 68 l-30 35 33 -60 c38 -72 34 -95 -15 -95 -32
0 -35 3 -41 38 -7 41 -27 69 -68 96 -42 28 -41 3 2 -38 81 -76 30 -137 -70
-86 -73 37 -105 74 -135 155 -16 44 -32 74 -39 72 -6 -3 -10 -10 -9 -16 5 -21
-15 -11 -41 20 -31 37 -34 85 -10 205 15 75 15 85 -2 145 -21 76 -21 93 -6
179 17 96 14 248 -7 395 -19 125 -84 436 -96 456 -4 5 3 9 13 9 29 0 77 60 98
122 l19 53 3 -35 c6 -56 -6 -992 -12 -1025 -5 -22 -4 -25 2 -10 30 66 37 239
37 845 -1 603 -1 617 -23 697 -32 117 -77 217 -174 388 -118 208 -207 458
-246 690 -20 122 -22 528 -4 705 26 249 90 546 176 816 19 62 46 167 61 235
33 161 74 316 92 354 16 34 144 156 155 149 5 -3 8 -12 8 -21z m-1214 -310
c85 -151 112 -190 207 -296 119 -133 157 -201 183 -322 22 -109 22 -339 0
-465 -14 -80 -112 -480 -119 -487 -2 -1 -8 86 -15 193 -25 384 -61 588 -168
949 -41 141 -125 475 -118 475 2 0 15 -21 30 -47z m943 -108 c-17 -77 -46
-192 -65 -255 -109 -364 -161 -622 -184 -910 -6 -74 -13 -164 -17 -200 l-6
-65 -53 210 c-28 116 -57 251 -63 300 -15 127 -14 285 5 396 22 136 60 207
198 368 64 76 135 170 161 218 26 46 49 83 50 81 2 -2 -10 -66 -26 -143z
m-1172 -12 c-7 -85 -22 -129 -108 -323 -134 -306 -172 -530 -134 -798 30 -213
85 -399 159 -538 l45 -84 -14 -48 c-20 -63 -50 -110 -80 -124 -22 -10 -29 -8
-49 11 -56 52 -113 213 -142 396 -25 162 -31 554 -10 708 32 239 117 546 178
645 52 83 149 222 155 222 3 0 3 -30 0 -67z m1479 -37 c78 -108 109 -170 148
-296 85 -272 116 -473 116 -750 0 -363 -54 -677 -139 -805 -15 -22 -35 -41
-45 -43 -36 -7 -105 103 -106 168 0 20 16 67 40 115 92 186 148 429 157 670 8
242 -23 389 -137 641 -80 176 -110 275 -109 354 0 46 2 52 12 36 7 -10 35 -51
63 -90z m-1456 -105 c0 -70 66 -351 142 -606 60 -202 65 -157 -58 -529 -47
-142 -95 -297 -108 -344 l-23 -86 -36 65 c-80 144 -153 435 -164 654 -10 226
31 419 142 656 36 76 70 156 77 179 15 47 28 52 28 11z m1393 -41 c14 -36 52
-123 85 -195 97 -210 127 -363 120 -608 -6 -174 -35 -330 -94 -499 -34 -98
-92 -224 -99 -217 -2 2 -13 42 -25 89 -11 47 -60 204 -107 350 -108 335 -111
364 -59 530 43 135 108 396 132 528 9 51 18 92 19 90 2 -2 15 -32 28 -68z
m1329 -497 c-6 -58 -5 -57 -64 -123 -41 -45 -48 -49 -48 -30 0 13 23 59 50
102 28 43 50 83 50 88 0 6 4 10 9 10 5 0 6 -21 3 -47z m-4029 -42 c36 -44 66
-115 54 -127 -6 -7 -77 68 -93 100 -6 11 -14 41 -17 66 -5 38 -4 42 6 26 7
-10 29 -39 50 -65z m2467 -268 c0 -8 38 -133 85 -276 117 -363 128 -411 123
-518 -3 -72 -9 -97 -37 -153 -50 -103 -130 -148 -197 -113 -102 54 -137 157
-138 407 0 194 14 275 96 522 46 138 68 181 68 131z m-815 -442 c14 -80 16
-137 12 -255 -8 -213 -34 -294 -115 -350 -63 -43 -93 -37 -166 37 -73 72 -90
118 -89 236 0 96 21 177 134 511 49 145 89 267 90 270 4 22 121 -367 134 -449z
m-69 -1271 c20 -136 22 -375 4 -481 -22 -128 -107 -319 -143 -319 -52 0 -110
157 -123 335 -16 211 38 400 180 635 l51 85 7 -70 c4 -38 15 -122 24 -185z
m944 67 c92 -186 118 -274 127 -427 8 -162 -32 -349 -91 -417 -29 -33 -47 -27
-81 28 -70 109 -107 269 -108 459 -1 171 41 544 60 529 6 -6 48 -83 93 -172z"/>
<path d="M2192 6365 c0 -93 3 -240 7 -325 l6 -155 8 275 c4 151 10 295 13 320
4 39 3 42 -7 25 -13 -19 -13 -19 -20 5 -4 14 -7 -51 -7 -145z"/>
<path d="M7833 9965 c-122 -33 -227 -116 -277 -217 -46 -94 -58 -182 -53 -378
6 -208 18 -260 80 -327 41 -45 41 -45 45 -137 6 -133 -9 -194 -63 -254 -38
-42 -75 -64 -259 -156 -188 -94 -223 -107 -289 -116 -146 -18 -247 -69 -342
-171 -96 -104 -148 -242 -161 -424 -7 -93 -9 -102 -42 -145 -59 -76 -139 -255
-178 -395 -50 -183 -61 -209 -107 -266 -238 -288 -276 -376 -332 -764 -31
-219 -33 -225 -102 -400 -44 -110 -58 -158 -65 -225 -4 -47 -22 -156 -40 -243
l-31 -159 17 -76 c37 -166 54 -208 100 -256 45 -46 188 -126 226 -126 11 0 23
8 26 18 3 9 11 27 17 39 9 20 1 41 -51 144 -34 66 -62 130 -62 140 0 40 22
108 37 114 21 7 20 9 32 -64 17 -108 81 -178 138 -152 42 19 48 51 30 159 -9
53 -16 135 -15 182 1 71 -3 96 -26 155 -50 126 -52 137 -32 190 25 63 97 169
198 289 222 265 252 310 299 456 32 100 59 240 59 307 0 41 5 49 66 110 113
115 247 343 275 469 7 30 15 54 19 54 4 0 10 -20 13 -44 8 -56 51 -163 137
-343 38 -79 74 -168 80 -199 15 -73 17 -216 6 -494 -9 -221 -10 -227 -43 -320
-21 -58 -40 -136 -48 -200 -10 -74 -30 -152 -69 -265 -128 -372 -171 -609
-170 -955 0 -241 15 -398 60 -627 31 -162 40 -301 26 -406 -6 -45 -16 -134
-21 -197 -8 -87 -19 -140 -46 -220 -79 -231 -110 -412 -95 -550 5 -47 25 -225
44 -396 73 -648 78 -764 36 -938 -17 -72 -20 -97 -11 -130 23 -93 -18 -155
-156 -236 -69 -41 -78 -50 -81 -78 -5 -46 39 -86 114 -107 32 -9 84 -25 114
-37 160 -60 163 -60 241 -56 84 5 128 24 163 71 18 24 21 41 19 115 -2 94 -3
325 -1 382 0 19 -3 94 -7 165 -9 145 -2 200 61 494 50 231 96 384 149 494 25
52 52 126 60 163 19 90 19 297 0 449 -29 237 -17 335 70 550 37 93 49 140 75
300 32 199 57 302 146 603 87 296 106 400 112 599 4 177 6 182 44 168 10 -4
12 -35 10 -140 -5 -190 28 -369 133 -710 68 -223 103 -381 125 -567 15 -126
38 -218 89 -351 60 -155 66 -224 41 -429 -43 -342 -38 -461 26 -616 57 -137
60 -148 99 -327 89 -411 118 -658 95 -790 -6 -32 -5 -80 2 -131 10 -68 9 -101
-5 -196 -34 -226 16 -298 208 -298 53 0 85 7 130 26 33 15 101 39 152 54 140
42 183 76 171 136 -1 10 -33 36 -70 58 -80 49 -131 96 -164 151 -20 35 -25 60
-31 165 -10 189 -6 262 43 680 24 212 54 468 65 570 32 281 20 398 -71 692
-35 115 -42 154 -53 293 -19 259 -15 376 21 565 82 429 91 753 31 1069 -37
191 -97 427 -134 522 -29 74 -37 114 -45 204 -7 92 -16 131 -46 211 l-38 99
-4 195 c-3 107 -6 274 -6 370 -1 198 -11 161 115 430 34 74 74 173 89 218 l26
84 33 -89 c60 -161 175 -354 261 -438 32 -31 40 -46 40 -75 0 -75 31 -236 65
-338 46 -137 83 -202 189 -332 210 -258 296 -387 296 -445 0 -13 -18 -52 -40
-87 -51 -81 -74 -171 -66 -252 4 -34 2 -83 -4 -111 -29 -134 -25 -185 15 -203
65 -30 145 68 145 179 0 31 4 39 19 39 14 0 20 -10 25 -37 14 -91 -2 -152 -61
-230 -25 -32 -28 -45 -28 -107 l0 -71 42 1 c77 1 227 110 258 186 52 130 68
327 40 475 -8 43 -20 128 -25 188 -7 82 -20 141 -49 232 -49 150 -62 211 -100
474 -47 324 -96 444 -266 644 -82 97 -74 80 -150 350 -41 146 -95 266 -154
346 -40 53 -41 55 -41 139 0 91 -16 168 -52 253 -88 206 -221 318 -420 351
-76 13 -113 29 -306 126 -245 123 -279 150 -306 241 -10 32 -16 91 -16 149 0
94 1 98 33 139 17 24 42 56 53 71 30 41 46 159 47 347 0 135 -3 167 -21 223
-52 157 -153 255 -309 295 -72 19 -240 19 -310 0z m321 -45 c121 -41 191 -101
239 -202 37 -79 46 -128 47 -253 0 -130 -14 -189 -68 -287 -51 -94 -66 -159
-66 -289 l-1 -106 -21 38 c-84 147 -129 173 -294 174 -159 0 -212 -30 -285
-161 -20 -35 -37 -64 -39 -64 -2 0 -1 33 2 73 7 113 -19 235 -72 341 -86 174
-90 357 -12 523 61 128 145 196 276 222 30 6 64 13 75 15 40 10 161 -4 219
-24z m-567 -780 c32 -72 30 -95 -5 -37 -22 35 -44 107 -34 107 4 0 21 -32 39
-70z m828 23 c-8 -26 -24 -56 -36 -67 -24 -24 -24 -21 11 57 30 69 44 74 25
10z m-441 -280 c-2 -43 -9 -153 -14 -245 -11 -212 -18 -227 -144 -326 -54 -41
-21 -31 49 16 54 36 75 58 96 98 l26 50 23 -44 c26 -49 76 -95 141 -131 41
-22 39 -19 -33 51 -43 41 -85 92 -94 114 -16 36 -31 240 -33 442 l-1 52 38 0
c66 0 137 -27 170 -64 16 -19 49 -71 73 -117 29 -55 66 -107 109 -150 60 -61
82 -75 260 -161 l195 -95 -50 -16 c-27 -8 -81 -27 -120 -41 -38 -15 -119 -39
-178 -53 -111 -26 -248 -85 -281 -122 -12 -13 13 -4 71 25 65 33 115 50 192
65 57 10 106 18 108 16 4 -5 -152 -382 -226 -547 -62 -136 -223 -425 -295
-528 l-51 -74 -6 559 c-7 616 -8 643 -19 568 -5 -27 -9 -297 -9 -600 l-1 -550
-106 160 c-115 175 -240 419 -327 640 -129 327 -147 373 -147 378 0 2 48 -6
108 -19 74 -16 135 -37 195 -68 56 -28 82 -37 72 -26 -30 33 -196 107 -290
130 -95 22 -305 89 -318 100 -4 4 25 23 65 42 234 113 315 157 354 191 23 20
70 83 105 140 34 56 71 116 83 134 33 51 95 81 173 82 l42 1 -5 -77z m-757
-574 c98 -32 123 -52 123 -100 0 -72 -158 -215 -340 -308 -52 -27 -158 -70
-235 -96 -77 -25 -155 -55 -173 -66 -18 -10 -36 -19 -39 -19 -13 0 10 181 32
246 67 200 201 328 388 369 76 17 125 12 244 -26z m1809 16 c27 -8 79 -32 114
-53 147 -89 260 -302 260 -491 l0 -71 -52 29 c-29 16 -120 53 -202 81 -174 60
-218 81 -306 146 -138 101 -220 197 -220 257 0 34 13 42 126 82 112 39 196 45
280 20z m-355 -260 c62 -67 192 -163 277 -203 40 -19 72 -41 72 -49 0 -30 -41
-92 -93 -139 -90 -83 -229 -144 -328 -144 -60 0 -162 37 -204 73 l-39 34 66
149 c36 82 89 206 118 276 l53 128 18 -39 c10 -22 37 -61 60 -86z m-1242 -3
c24 -64 73 -186 108 -271 35 -85 62 -160 59 -167 -8 -22 -108 -73 -166 -85
-113 -24 -269 28 -380 128 -53 47 -110 125 -110 149 0 7 28 27 63 43 150 72
324 212 358 289 7 17 16 32 19 32 3 0 25 -53 49 -118z m-501 -322 c22 -57 25
-80 25 -195 0 -113 -3 -142 -27 -219 -65 -216 -216 -454 -345 -546 -31 -21
-34 -22 -27 -4 25 59 58 174 66 232 11 80 13 262 3 262 -25 0 -125 -72 -193
-136 -59 -57 -86 -92 -113 -147 -51 -106 -55 -135 -5 -42 48 90 182 232 258
274 l43 24 -6 -114 c-10 -189 -63 -341 -160 -468 -49 -64 -91 -96 -134 -106
-40 -8 -46 4 -62 120 -16 115 2 265 56 465 72 266 90 315 153 409 65 97 100
135 145 159 45 24 268 101 284 99 8 -1 25 -31 39 -67z m2283 20 c138 -48 182
-78 251 -175 72 -100 104 -182 168 -426 46 -172 52 -209 57 -326 7 -156 -3
-262 -23 -270 -32 -12 -72 11 -135 77 -74 77 -126 173 -154 280 -18 73 -33
310 -19 310 12 -1 73 -47 127 -97 59 -54 108 -117 147 -185 58 -105 45 -54
-17 64 -48 92 -195 229 -272 253 l-24 7 6 -138 c6 -141 31 -274 63 -335 8 -17
13 -33 11 -35 -11 -11 -122 106 -172 180 -72 108 -168 309 -196 410 -33 116
-34 286 -1 371 12 33 25 66 27 73 6 15 4 15 156 -38z m-2136 -155 c129 -92
270 -125 389 -91 55 16 134 58 147 78 3 5 14 -8 24 -29 10 -21 42 -82 72 -137
l55 -98 -45 -92 c-39 -77 -323 -593 -333 -605 -4 -4 -44 43 -100 116 -85 113
-229 421 -265 567 -23 93 -39 385 -19 354 6 -10 40 -38 75 -63z m1892 -87 c-8
-206 -39 -314 -163 -562 -64 -127 -122 -217 -184 -284 -30 -32 -32 -33 -46
-15 -62 79 -297 496 -349 617 l-27 64 73 129 73 130 40 -29 c58 -40 146 -68
214 -68 102 0 237 53 317 124 22 19 44 35 49 36 5 0 6 -62 3 -142z m-564 -650
c30 -51 80 -128 111 -171 31 -43 56 -80 56 -83 0 -2 -15 -25 -34 -51 -63 -88
-135 -251 -171 -389 -2 -5 -23 -16 -46 -23 -120 -35 -242 -136 -309 -254 l-32
-58 -19 38 c-10 21 -32 55 -49 75 -41 50 -177 150 -243 179 -53 24 -54 25 -71
89 -28 102 -74 204 -136 299 l-57 87 77 130 c42 71 125 219 183 329 58 110
110 206 115 214 6 11 33 -22 100 -122 l92 -136 1 -393 c1 -216 4 -427 8 -468
6 -68 7 -61 14 85 4 88 7 300 7 471 l0 310 38 60 c20 33 60 94 87 135 l50 75
87 -168 c48 -92 111 -209 141 -260z m-2181 -65 l-9 -98 -88 -140 c-48 -76
-122 -206 -163 -288 -41 -81 -76 -147 -77 -145 -7 7 35 261 59 356 43 166 89
253 225 414 l56 67 3 -34 c2 -18 -1 -78 -6 -132z m3674 -86 c59 -112 84 -201
114 -408 16 -108 32 -210 36 -225 14 -61 -11 -9 -61 124 -63 169 -127 300
-204 424 l-59 93 -3 120 -4 120 73 -90 c39 -49 88 -120 108 -158z m-433 -49
c25 -29 57 -82 72 -118 30 -73 55 -118 166 -307 159 -268 268 -502 301 -642 6
-28 15 -51 20 -51 27 0 -19 157 -100 338 -26 59 -104 206 -174 327 -106 185
-179 319 -197 359 -2 5 10 -1 26 -13 18 -13 46 -23 74 -24 l44 -2 9 63 c5 34
13 62 17 62 13 0 106 -156 159 -265 54 -111 194 -465 241 -608 18 -53 34 -132
40 -187 5 -52 18 -148 29 -214 11 -65 20 -140 20 -166 0 -55 -43 -248 -64
-288 -16 -30 -81 -94 -136 -135 -62 -45 -118 -56 -76 -14 28 28 113 133 124
153 15 28 42 148 42 188 0 19 -10 46 -25 66 -39 53 -75 179 -75 263 0 50 -3
67 -10 57 -18 -28 -11 -146 14 -225 l24 -75 -28 0 c-16 0 -42 11 -58 25 l-29
25 -7 -60 c-15 -132 -47 -210 -86 -210 -38 0 -44 25 -26 118 9 48 18 134 20
192 3 113 8 128 74 228 21 31 35 64 34 81 -2 63 -101 220 -257 406 -124 147
-168 212 -204 300 -40 96 -79 243 -87 325 -3 36 -7 75 -10 88 -4 22 -4 22 25
8 16 -9 49 -39 74 -68z m-2898 -44 c-31 -199 -79 -330 -162 -441 -21 -28 -82
-102 -137 -165 -144 -166 -245 -313 -266 -387 -8 -28 -5 -45 16 -95 58 -141
66 -169 60 -231 -3 -35 1 -104 11 -166 9 -58 14 -113 10 -122 -4 -10 -17 -17
-32 -17 -32 0 -61 44 -69 109 -4 25 -11 69 -17 98 l-10 51 -24 -24 c-16 -16
-35 -24 -60 -24 -19 0 -35 3 -35 6 0 3 20 52 45 109 46 106 67 195 46 195 -6
0 -11 -11 -11 -24 0 -37 -22 -92 -105 -261 -59 -119 -74 -159 -66 -169 6 -7
18 -37 27 -65 11 -40 33 -71 90 -133 81 -88 93 -113 45 -97 -59 21 -156 95
-184 141 -29 47 -77 221 -77 279 0 16 13 94 29 172 16 78 32 173 36 212 4 38
19 103 35 145 136 372 254 627 381 823 l83 129 16 -69 16 -68 47 2 c26 2 59
10 73 20 24 15 21 8 -26 -87 -28 -56 -120 -211 -203 -344 -206 -328 -274 -468
-265 -541 5 -42 23 -29 29 22 14 103 72 216 269 523 72 113 161 266 197 340
81 166 128 238 168 254 16 7 32 12 33 10 2 -1 -4 -51 -13 -110z m2161 -31 c0
-82 4 -230 8 -330 4 -101 3 -183 -1 -183 -5 0 -14 9 -21 21 -7 11 -39 33 -70
47 -49 23 -71 27 -149 27 -51 0 -93 3 -93 6 0 22 48 156 81 227 45 97 86 158
177 260 36 39 66 72 66 72 1 0 1 -66 2 -147z m-1385 35 c99 -118 153 -212 201
-351 20 -61 36 -112 35 -113 -1 -2 -23 2 -47 7 -51 12 -159 5 -192 -12 -13 -6
-42 -30 -65 -52 -51 -49 -48 -72 -28 218 9 121 12 251 9 310 -4 55 -3 97 1 93
4 -4 42 -49 86 -100z m209 -494 c140 -21 321 -157 385 -289 l26 -53 -3 -283
c-3 -269 -4 -286 -25 -325 -28 -53 -93 -111 -157 -140 -107 -48 -284 -56 -391
-17 -57 21 -124 82 -154 141 -89 174 -5 459 201 688 50 55 51 57 13 27 -105
-81 -181 -186 -230 -317 -36 -97 -46 -150 -46 -249 0 -97 22 -160 79 -227 l30
-35 -59 -62 c-49 -53 -62 -75 -83 -141 -59 -186 -75 -348 -76 -767 0 -268 -8
-370 -37 -480 l-18 -70 -6 135 c-4 74 -17 184 -29 245 -36 184 -50 311 -57
530 -9 314 12 486 98 793 22 79 60 200 85 269 31 88 47 152 54 217 16 157 54
254 135 344 45 50 73 65 145 76 25 4 40 2 120 -10z m1097 -22 c50 -26 82 -66
117 -146 35 -80 54 -155 61 -251 5 -54 21 -122 50 -210 56 -168 133 -497 151
-644 28 -241 12 -577 -42 -871 -42 -225 -45 -251 -47 -367 -1 -61 -3 -110 -6
-108 -2 2 -12 39 -23 82 -27 111 -34 330 -18 626 15 287 8 389 -40 556 -42
150 -75 208 -141 254 -21 15 -21 15 20 69 55 74 71 123 71 227 0 113 -18 183
-82 311 -44 88 -66 118 -134 188 -46 45 -87 82 -93 82 -5 0 12 -23 39 -50 102
-105 201 -282 230 -413 19 -82 9 -212 -20 -272 -30 -62 -88 -120 -148 -148
-41 -19 -64 -22 -177 -21 -107 0 -140 4 -188 22 -127 46 -209 126 -222 216 -4
22 -5 158 -3 301 l3 260 32 65 c61 125 172 213 323 255 82 22 232 16 287 -13z
m-2777 -946 c0 -7 -5 -27 -11 -45 -17 -47 3 -113 62 -202 46 -71 59 -100 42
-98 -19 2 -127 146 -145 192 -31 82 -31 84 -7 119 33 47 59 63 59 34z m4184
-9 c30 -22 20 -104 -24 -202 -18 -42 -95 -135 -111 -135 -20 0 -7 39 27 84 67
87 85 152 65 223 -13 44 6 57 43 30z m-2140 -220 c-5 -167 -32 -310 -99 -537
-79 -269 -132 -489 -160 -665 -27 -166 -45 -233 -100 -365 -15 -35 -33 -91
-39 -122 -6 -32 -13 -58 -16 -58 -8 0 -15 253 -15 520 1 230 14 375 56 619 11
62 18 115 16 117 -5 6 -64 -253 -88 -386 -35 -200 -108 -387 -164 -424 -39
-26 -29 -38 11 -14 45 26 86 89 110 168 11 33 21 60 24 60 3 0 6 -105 7 -233
1 -127 6 -278 10 -334 5 -57 6 -103 3 -103 -3 0 -14 23 -24 52 -23 66 -115
161 -165 171 -18 4 -71 7 -117 7 -46 0 -84 2 -84 5 0 10 52 110 73 139 11 15
45 44 76 64 63 41 50 57 -17 23 -59 -30 -96 -79 -168 -224 -77 -154 -78 -141
-14 108 50 194 60 297 60 634 1 308 10 441 39 563 30 130 58 193 113 258 l50
60 32 -19 c138 -84 423 -60 556 47 14 11 28 18 32 16 4 -3 5 -69 2 -147z m185
119 c91 -61 168 -81 316 -81 121 0 134 2 189 28 54 25 61 26 82 12 67 -43 110
-128 151 -289 25 -101 27 -128 28 -301 0 -104 -4 -287 -9 -405 -10 -252 3
-374 59 -550 32 -102 52 -190 42 -190 -3 0 -20 28 -37 63 -80 153 -167 265
-233 298 -46 24 -60 18 -26 -10 13 -11 42 -35 63 -53 34 -28 116 -140 116
-157 0 -3 -37 -6 -83 -6 -65 0 -91 -5 -123 -22 -49 -26 -111 -94 -145 -158
-13 -25 -26 -45 -29 -45 -3 0 -2 44 2 98 3 53 10 218 14 366 l7 268 37 -103
c38 -109 63 -164 79 -174 11 -6 9 1 -49 168 -23 65 -55 184 -71 265 -48 244
-73 361 -77 358 -1 -2 7 -70 18 -152 12 -82 25 -208 28 -280 7 -123 1 -455
-12 -679 -3 -55 -6 -104 -6 -110 0 -10 -52 132 -91 250 -11 33 -33 148 -49
256 -31 209 -60 334 -140 603 -93 314 -125 508 -113 675 3 50 7 91 8 91 2 0
26 -15 54 -34z m-813 -1686 c104 -39 191 -225 219 -468 39 -339 2 -617 -87
-660 -63 -30 -155 47 -195 161 -15 44 -18 85 -18 259 1 114 0 206 -1 205 -6
-6 -34 -273 -34 -325 0 -101 -49 -189 -124 -223 -63 -29 -93 -25 -136 19 -53
53 -72 124 -72 266 0 158 36 309 132 551 71 181 91 219 120 227 33 9 159 2
196 -12z m1580 -5 c48 -48 130 -257 190 -486 25 -92 28 -123 29 -259 0 -142
-2 -159 -24 -208 -13 -28 -39 -66 -59 -83 -32 -28 -40 -31 -87 -27 -63 5 -108
36 -136 96 -17 35 -23 72 -29 185 -8 136 -28 302 -36 294 -3 -2 1 -51 7 -108
19 -175 -1 -361 -48 -441 -28 -49 -96 -93 -143 -93 -51 0 -66 16 -97 101 -37
102 -41 255 -14 499 25 216 40 284 82 368 66 130 148 187 267 187 65 0 76 -3
98 -25z m-1656 -1000 c41 -86 93 -139 150 -156 56 -16 54 -13 40 -39 -35 -65
-162 -654 -195 -909 -17 -121 -19 -257 -6 -265 5 -3 12 41 16 99 4 57 11 119
15 137 l8 33 2 -40 c8 -166 5 -568 -4 -588 -6 -12 -27 -30 -46 -39 -45 -23
-169 -23 -225 -1 -22 9 -92 33 -155 55 -114 38 -159 65 -145 88 4 6 44 35 88
64 86 55 147 115 147 144 0 13 4 12 20 -8 l20 -25 0 23 c0 13 -10 52 -22 87
l-22 63 18 74 c40 155 32 394 -29 942 -14 121 -23 221 -21 223 2 2 13 -7 24
-21 34 -44 60 -171 94 -466 30 -260 33 -311 33 -577 0 -160 1 -291 1 -290 9
10 26 255 25 372 0 197 -64 828 -91 899 -9 25 -8 26 28 26 74 1 172 71 188
138 4 12 8 22 10 22 1 0 17 -29 34 -65z m1585 -41 c45 -47 105 -69 159 -59
l33 7 -17 -69 c-10 -37 -34 -180 -54 -318 -20 -137 -48 -326 -62 -420 -37
-240 -40 -316 -19 -409 9 -43 18 -76 21 -74 2 2 0 49 -4 104 -9 122 -7 145 57
584 67 457 94 592 129 636 14 18 28 32 29 30 2 -1 -8 -92 -22 -202 -76 -619
-87 -744 -80 -889 8 -180 8 -180 -15 -242 -25 -67 -25 -74 1 -44 11 13 21 22
23 20 1 -2 17 -25 34 -51 37 -55 94 -103 175 -148 31 -17 57 -36 57 -40 0 -11
-27 -38 -52 -51 -11 -6 -52 -20 -92 -31 -39 -11 -100 -32 -136 -48 -85 -37
-137 -44 -206 -30 -111 23 -134 77 -109 251 12 86 13 126 3 229 -8 94 -8 131
0 145 9 16 12 5 13 -60 0 -44 0 -98 -1 -120 -1 -29 1 -37 10 -29 16 16 14 244
-4 344 -8 47 -36 203 -61 348 -41 241 -80 422 -105 486 -9 25 -8 26 23 26 47
0 130 43 160 81 14 19 31 54 38 78 11 39 14 42 24 25 5 -10 28 -38 50 -60z"/>
</g>
</svg>
